<svg width="24" height="24" viewBox="0 0 24 24" fill="none" xmlns="http://www.w3.org/2000/svg">
<path d="M5.375 22C4.72187 22 4.16296 21.7876 3.69825 21.3627C3.23275 20.9371 3 20.4257 3 19.8286V10.0571C3 9.71333 3.08431 9.38762 3.25294 9.08C3.42077 8.77238 3.65313 8.51905 3.95 8.32L11.075 3.43429C11.2927 3.28952 11.5203 3.18095 11.7578 3.10857C11.9953 3.03619 12.2427 3 12.5 3C12.7573 3 13.0047 3.03619 13.2422 3.10857C13.4797 3.18095 13.7073 3.28952 13.925 3.43429L21.05 8.32C21.3469 8.51905 21.5796 8.77238 21.7482 9.08C21.9161 9.38762 22 9.71333 22 10.0571V19.8286C22 20.4257 21.7676 20.9371 21.3029 21.3627C20.8374 21.7876 20.2781 22 19.625 22H14.875V14.4H10.125V22H5.375Z" fill="#161620"/>
</svg>
