<svg width="24" height="24" viewBox="0 0 24 24" fill="none" xmlns="http://www.w3.org/2000/svg">
<path fill-rule="evenodd" clip-rule="evenodd" d="M13.4856 2.0529C13.7176 2.12739 13.9203 2.27548 14.0641 2.47565C14.208 2.67582 14.2856 2.91763 14.2856 3.1659V8.99924H18.8567C19.0657 8.99915 19.2708 9.05759 19.4496 9.1682C19.6283 9.27882 19.7739 9.43737 19.8706 9.62661C19.9672 9.81585 20.0111 10.0285 19.9976 10.2415C19.9841 10.4544 19.9136 10.6595 19.7938 10.8344L11.7943 22.5011C11.6551 22.7047 11.4558 22.8577 11.2256 22.9377C10.9953 23.0178 10.746 23.0207 10.514 22.9462C10.282 22.8716 10.0794 22.7234 9.93555 22.5231C9.79174 22.3228 9.71428 22.0809 9.71443 21.8326V15.9992H5.14329C4.93426 15.9993 4.7292 15.9409 4.55044 15.8303C4.37167 15.7197 4.22605 15.5611 4.12943 15.3719C4.0328 15.1826 3.98886 14.97 4.0024 14.757C4.01594 14.5441 4.08643 14.339 4.20621 14.1641L12.2057 2.4974C12.3451 2.29415 12.5444 2.14158 12.7746 2.06186C13.0048 1.98213 13.2538 1.9794 13.4856 2.05407V2.0529Z" fill="#161620"/>
</svg>
