<svg width="24" height="24" viewBox="0 0 24 24" fill="none" xmlns="http://www.w3.org/2000/svg">
<path d="M21 18.5495C21 19.4957 20.7233 20.3073 20.1699 20.9844C19.6165 21.6615 18.9503 22 18.1711 22H6.82891C6.04974 22 5.38346 21.6615 4.83008 20.9844C4.27669 20.3073 4 19.4957 4 18.5495C4 17.8116 4.03763 17.115 4.11289 16.4596C4.18815 15.8043 4.3276 15.1445 4.53125 14.4805C4.7349 13.8164 4.99388 13.2478 5.3082 12.7747C5.62253 12.3016 6.03867 11.9154 6.55664 11.6159C7.07461 11.3164 7.67005 11.1667 8.34297 11.1667C9.50286 12.2778 10.8885 12.8333 12.5 12.8333C14.1115 12.8333 15.4971 12.2778 16.657 11.1667C17.3299 11.1667 17.9254 11.3164 18.4434 11.6159C18.9613 11.9154 19.3775 12.3016 19.6918 12.7747C20.0061 13.2478 20.2651 13.8164 20.4688 14.4805C20.6724 15.1445 20.8118 15.8043 20.8871 16.4596C20.9624 17.115 21 17.8116 21 18.5495ZM17.6 7C17.6 8.38021 17.102 9.55859 16.1059 10.5352C15.1098 11.5117 13.9078 12 12.5 12C11.0922 12 9.89023 11.5117 8.89414 10.5352C7.89805 9.55859 7.4 8.38021 7.4 7C7.4 5.61979 7.89805 4.44141 8.89414 3.46484C9.89023 2.48828 11.0922 2 12.5 2C13.9078 2 15.1098 2.48828 16.1059 3.46484C17.102 4.44141 17.6 5.61979 17.6 7Z" fill="#161620"/>
</svg>
