<svg width="24" height="24" viewBox="0 0 24 24" fill="none" xmlns="http://www.w3.org/2000/svg">
<path d="M20.5 2H3.5C2.66667 2 2 2.66946 2 3.42259V20.5774C2 21.3305 2.66667 22 3.5 22H20.5C21.3333 22 22 21.3305 22 20.5774V3.42259C22 2.66946 21.3333 2 20.5 2ZM7.91667 19.0711H5V9.53138H7.91667V19.0711ZM6.5 8.19247C5.58333 8.19247 4.75 7.43933 4.75 6.43515C4.75 5.43096 5.5 4.67782 6.5 4.67782C7.41667 4.67782 8.25 5.43096 8.25 6.43515C8.25 7.43933 7.41667 8.19247 6.5 8.19247ZM19.0833 18.9874H16.1667V14.3013C16.1667 13.2134 16.1667 11.7071 14.5833 11.7071C13 11.7071 12.8333 12.9623 12.8333 14.1339V18.9038H9.91667V9.53138H12.6667V10.7866H12.75C13.1667 10.0335 14.1667 9.19665 15.5833 9.19665C18.5833 9.19665 19.1667 11.205 19.1667 13.7992V18.9874H19.0833Z" fill="black"/>
</svg>
