<svg width="24" height="24" viewBox="0 0 24 24" fill="none" xmlns="http://www.w3.org/2000/svg">
<path d="M7.55556 17.5556C7.87037 17.5556 8.13445 17.4489 8.34778 17.2356C8.56037 17.023 8.66667 16.7593 8.66667 16.4444C8.66667 16.1296 8.56037 15.8656 8.34778 15.6522C8.13445 15.4396 7.87037 15.3333 7.55556 15.3333C7.24074 15.3333 6.97667 15.4396 6.76333 15.6522C6.55074 15.8656 6.44444 16.1296 6.44444 16.4444C6.44444 16.7593 6.55074 17.023 6.76333 17.2356C6.97667 17.4489 7.24074 17.5556 7.55556 17.5556ZM7.55556 13.1111C7.87037 13.1111 8.13445 13.0044 8.34778 12.7911C8.56037 12.5785 8.66667 12.3148 8.66667 12C8.66667 11.6852 8.56037 11.4211 8.34778 11.2078C8.13445 10.9952 7.87037 10.8889 7.55556 10.8889C7.24074 10.8889 6.97667 10.9952 6.76333 11.2078C6.55074 11.4211 6.44444 11.6852 6.44444 12C6.44444 12.3148 6.55074 12.5785 6.76333 12.7911C6.97667 13.0044 7.24074 13.1111 7.55556 13.1111ZM7.55556 8.66667C7.87037 8.66667 8.13445 8.56 8.34778 8.34667C8.56037 8.13407 8.66667 7.87037 8.66667 7.55556C8.66667 7.24074 8.56037 6.97667 8.34778 6.76333C8.13445 6.55074 7.87037 6.44444 7.55556 6.44444C7.24074 6.44444 6.97667 6.55074 6.76333 6.76333C6.55074 6.97667 6.44444 7.24074 6.44444 7.55556C6.44444 7.87037 6.55074 8.13407 6.76333 8.34667C6.97667 8.56 7.24074 8.66667 7.55556 8.66667ZM10.8889 17.5556H17.5556V15.3333H10.8889V17.5556ZM10.8889 13.1111H17.5556V10.8889H10.8889V13.1111ZM10.8889 8.66667H17.5556V6.44444H10.8889V8.66667ZM4.22222 22C3.61111 22 3.08778 21.7826 2.65222 21.3478C2.21741 20.9122 2 20.3889 2 19.7778V4.22222C2 3.61111 2.21741 3.08778 2.65222 2.65222C3.08778 2.21741 3.61111 2 4.22222 2H19.7778C20.3889 2 20.9122 2.21741 21.3478 2.65222C21.7826 3.08778 22 3.61111 22 4.22222V19.7778C22 20.3889 21.7826 20.9122 21.3478 21.3478C20.9122 21.7826 20.3889 22 19.7778 22H4.22222Z" fill="#161620"/>
</svg>
